<svg id="Capa_1" data-name="Capa 1" xmlns="http://www.w3.org/2000/svg" width="188.75" height="57.75" viewBox="0 0 188.75 57.75"><defs><style>.cls-1{fill:#cd132d;}</style></defs><path class="cls-1" d="M98.84,78.63v10H70.48v14.22h27v10h-27v22.6H58.13V78.63Z" transform="translate(-58.13 -78.63)"/><rect class="cls-1" x="46.75" width="12.07" height="10.05"/><rect class="cls-1" x="46.75" y="16.05" width="12.07" height="40.83"/><path class="cls-1" d="M162.09,107.9v27.6H150V109.64c0-3.93-1.51-6.47-6-6.47-5.24,0-7.63,3.62-7.63,8.18V135.5H124.28V94.67H136V101c2.38-4.37,6.47-7.19,12.67-7.19C157.68,93.8,162.09,99.64,162.09,107.9Z" transform="translate(-58.13 -78.63)"/><path class="cls-1" d="M167.34,123.11h10.88c1,4,4,5.28,8.5,5.28s7-1.47,7-4.21c0-2.14-1.39-2.94-4.56-3.73s-8.47-1.27-13-2.7-7.67-4.49-7.63-10.69c0-8.62,6.67-13.26,17-13.26,10.68,0,17.16,3.65,18.51,12.39H193.16c-1-3.26-3.38-4.41-7.27-4.41s-6.12,1.23-6.12,3.61c0,1.87,1.27,2.9,4.49,3.62s8.94,1.47,13.15,2.74,7.58,4.13,7.58,10.72c0,9.22-7.23,13.9-18.35,13.9C175.72,136.37,168.73,132.8,167.34,123.11Z" transform="translate(-58.13 -78.63)"/><path class="cls-1" d="M246.87,108V135.5H235.36l0-6.39c-2.07,4-6.56,7.18-13.07,7.18-7.74,0-12.87-4.48-12.87-11.91,0-6.51,3.46-9.81,8.54-11.8s11.08-2.74,17-3v-1.79c0-3.58-1.47-6-6.47-6-4,0-6.12,1.63-6.76,5h-11.4c1.08-9,7.67-13,18.51-13C240.32,93.8,246.87,98.52,246.87,108ZM235,116.12a30.2,30.2,0,0,0-9.65,1.87c-2.54,1.11-3.82,2.7-3.82,5.24,0,3.14,2.07,4.65,5.33,4.65,4.76,0,8.14-3.14,8.14-7.15Z" transform="translate(-58.13 -78.63)"/></svg>