<svg xmlns="http://www.w3.org/2000/svg" version="1.1" xmlns:xlink="http://www.w3.org/1999/xlink" xmlns:svgjs="http://svgjs.com/svgjs" width="1440" height="640" preserveAspectRatio="none" viewBox="0 0 1440 640"><g mask="url(&quot;#SvgjsMask1027&quot;)" fill="none"><rect width="1440" height="640" x="0" y="0" fill="rgba(229, 225, 202, 1)"></rect><path d="M61 640L701 0L1169 0L529 640z" fill="url(#SvgjsLinearGradient1028)"></path><path d="M476.20000000000005 640L1116.2 0L1627.7 0L987.7 640z" fill="url(#SvgjsLinearGradient1028)"></path><path d="M1421 640L781 0L388 0L1028 640z" fill="url(#SvgjsLinearGradient1029)"></path><path d="M910.8 640L270.79999999999995 0L-117.70000000000005 0L522.3 640z" fill="url(#SvgjsLinearGradient1029)"></path><path d="M988.7428844556263 640L1440 188.74288445562627L1440 640z" fill="url(#SvgjsLinearGradient1028)"></path><path d="M0 640L451.25711554437373 640L 0 188.74288445562627z" fill="url(#SvgjsLinearGradient1029)"></path></g><defs><mask id="SvgjsMask1027"><rect width="1440" height="640" fill="#ffffff"></rect></mask><linearGradient x1="0%" y1="100%" x2="100%" y2="0%" id="SvgjsLinearGradient1028"><stop stop-color="rgba(15, 70, 185, 0.2)" offset="0"></stop><stop stop-opacity="0" stop-color="rgba(15, 70, 185, 0.2)" offset="0.66"></stop></linearGradient><linearGradient x1="100%" y1="100%" x2="0%" y2="0%" id="SvgjsLinearGradient1029"><stop stop-color="rgba(15, 70, 185, 0.2)" offset="0"></stop><stop stop-opacity="0" stop-color="rgba(15, 70, 185, 0.2)" offset="0.66"></stop></linearGradient></defs></svg>